<?xml version="1.0" encoding="UTF-8" standalone="no"?>
<!DOCTYPE svg PUBLIC "-//W3C//DTD SVG 20010904//EN"
              "http://www.w3.org/TR/2001/REC-SVG-20010904/DTD/svg10.dtd">

<svg xmlns="http://www.w3.org/2000/svg"
     width="1.8in" height="1.8in"
     viewBox="0 0 537 540">
  <path id="Selection"
        fill="#800000" stroke="black" stroke-width="2.5"
        d="M 304.00,255.00
           C 304.00,255.00 304.00,58.00 304.00,58.00
             304.02,48.08 304.17,49.99 319.00,43.78
             319.00,43.78 353.00,30.34 353.00,30.34
             359.92,27.66 366.52,23.68 374.00,23.00
             374.00,23.00 374.00,205.00 374.00,205.00
             374.00,206.82 374.14,210.05 373.43,211.68
             371.84,215.32 362.61,219.78 359.00,222.05
             359.00,222.05 323.00,244.61 323.00,244.61
             317.16,248.17 310.61,253.38 304.00,255.00 Z
           M 124.00,295.00
           C 124.00,295.00 124.00,219.00 124.00,219.00
             124.00,216.57 123.80,213.33 125.02,211.18
             126.65,208.33 131.18,206.21 134.00,204.58
             134.00,204.58 155.00,192.43 155.00,192.43
             155.00,192.43 215.00,157.60 215.00,157.60
             218.78,155.33 231.75,148.75 233.40,145.67
             234.48,143.66 234.16,140.29 234.05,138.00
             234.05,138.00 234.05,128.00 234.05,128.00
             234.05,128.00 234.05,87.00 234.05,87.00
             234.01,82.99 233.52,79.63 237.15,77.00
             237.15,77.00 255.00,69.52 255.00,69.52
             255.00,69.52 277.00,60.72 277.00,60.72
             283.27,58.02 292.41,53.68 299.00,53.00
             299.00,53.00 299.00,180.00 299.00,180.00
             299.00,182.35 299.22,185.62 297.98,187.67
             296.50,190.11 288.73,194.65 286.00,196.27
             286.00,196.27 261.00,211.80 261.00,211.80
             261.00,211.80 166.00,271.19 166.00,271.19
             166.00,271.19 141.00,286.74 141.00,286.74
             135.41,290.20 130.68,294.09 124.00,295.00 Z
           M 123.00,306.00
           C 125.82,300.57 131.99,297.98 137.00,294.78
             137.00,294.78 167.00,276.04 167.00,276.04
             167.00,276.04 259.00,218.55 259.00,218.55
             259.00,218.55 284.00,202.95 284.00,202.95
             288.79,199.95 293.46,196.36 299.00,195.00
             299.00,195.00 299.00,251.00 299.00,251.00
             299.00,253.43 299.20,256.67 297.98,258.82
             296.58,261.26 293.34,262.95 291.00,264.42
             291.00,264.42 276.00,273.95 276.00,273.95
             276.00,273.95 204.00,318.79 204.00,318.79
             204.00,318.79 184.00,331.20 184.00,331.20
             180.98,333.20 177.89,336.05 174.00,335.20
             174.00,335.20 159.00,327.23 159.00,327.23
             159.00,327.23 123.00,306.00 123.00,306.00 Z
           M 262.00,355.00
           C 262.00,355.00 262.00,296.00 262.00,296.00
             262.00,294.12 261.88,290.89 262.60,289.21
             263.91,286.17 273.81,280.62 277.00,278.73
             277.00,278.73 307.00,260.04 307.00,260.04
             307.00,260.04 332.00,244.17 332.00,244.17
             332.00,244.17 352.00,231.73 352.00,231.73
             352.00,231.73 368.00,221.86 368.00,221.86
             370.59,220.32 374.03,217.68 377.00,217.38
             381.62,216.90 388.19,222.18 392.00,224.66
             392.00,224.66 414.17,239.01 414.17,239.01
             419.91,242.57 426.54,245.88 431.00,251.00
             431.00,251.00 397.00,272.53 397.00,272.53
             397.00,272.53 318.00,321.68 318.00,321.68
             318.00,321.68 281.00,344.95 281.00,344.95
             274.94,348.68 269.10,353.56 262.00,355.00 Z
           M 262.00,498.00
           C 262.00,498.00 262.00,370.00 262.00,370.00
             262.00,367.69 261.78,364.37 263.02,362.38
             264.40,360.18 270.54,356.87 273.00,355.32
             273.00,355.32 299.00,339.14 299.00,339.14
             299.00,339.14 338.00,314.53 338.00,314.53
             338.00,314.53 385.00,285.31 385.00,285.31
             385.00,285.31 408.00,270.81 408.00,270.81
             413.18,267.36 420.01,262.22 426.00,261.00
             426.00,261.00 426.00,351.00 426.00,351.00
             419.46,353.40 414.03,357.47 408.00,360.83
             408.00,360.83 361.00,387.86 361.00,387.86
             356.42,390.52 344.43,396.34 342.60,401.04
             341.89,402.87 342.00,406.00 342.00,408.00
             342.00,408.00 342.00,459.00 342.00,459.00
             342.00,461.14 342.24,464.64 341.01,466.43
             339.68,468.36 326.96,473.17 324.00,474.34
             324.00,474.34 285.00,489.80 285.00,489.80
             279.01,492.20 267.77,497.10 262.00,498.00 Z
           M 256.00,292.00
           C 257.76,296.43 257.00,305.90 257.00,311.00
             257.00,311.00 257.00,349.00 257.00,349.00
             257.00,349.00 257.00,482.00 257.00,482.00
             257.01,486.55 258.83,496.50 256.39,499.78
             253.70,503.39 239.74,507.75 235.00,509.53
             235.00,509.53 198.00,524.60 198.00,524.60
             191.15,527.34 184.46,530.92 177.00,531.00
             177.00,531.00 177.00,350.00 177.00,350.00
             177.00,350.00 178.17,341.39 178.17,341.39
             178.17,341.39 197.00,328.75 197.00,328.75
             197.00,328.75 256.00,292.00 256.00,292.00 Z" />
</svg>
